<?xml version="1.0" encoding="utf-8"?>
<svg x="0pt" y="0pt" width="128pt" height="128pt" viewBox="0 0 128 128" xmlns="http://www.w3.org/2000/svg" xmlns:xlink="http://www.w3.org/1999/xlink">
  <g id="Layer 1">
    <path id="Path 0" style="fill:#4b31c3;fill-opacity:1;fill-rule:nonzero;opacity:1;stroke:none;" d="M93.9891,115 C93.9891,115,34.0375,114.983,34.0375,114.983 C34.0375,114.983,4,64.208,4,64.208 C4,64.208,33.9964,13,33.9964,13 C33.9964,13,94.0129,13.0058,94.0129,13.0058 C94.0129,13.0058,124,64.2468,124,64.2468 C124,64.2468,93.9891,115,93.9891,115 z M100.729,85.0076 C100.729,85.0076,100.729,43.5722,100.729,43.5722 C100.729,43.5722,63.9999,22.7984,63.9999,22.7984 C63.9999,22.7984,27.3141,43.5722,27.3141,43.5722 C27.3141,43.5722,27.3141,85.0076,27.3141,85.0076 C27.3141,85.0076,63.9999,105.777,63.9999,105.777 C63.9999,105.777,100.729,85.0076,100.729,85.0076 z"/>
    <path id="Path 1" style="fill:#ffffff;fill-opacity:1;fill-rule:nonzero;opacity:1;stroke:none;" d="M100.729,85.0076 C100.729,85.0076,100.729,43.5722,100.729,43.5722 C100.729,43.5722,63.9999,22.7984,63.9999,22.7984 C63.9999,22.7984,27.3141,43.5722,27.3141,43.5722 C27.3141,43.5722,27.3141,85.0076,27.3141,85.0076 C27.3141,85.0076,63.9999,105.777,63.9999,105.777 C63.9999,105.777,100.729,85.0076,100.729,85.0076 z"/>
    <g id="Text">
      <g id="Text">
        <path style="fill:#4a31c3;fill-opacity:1;fill-rule:nonzero;opacity:1;stroke:none;" d="M64.6615,66.1757 C64.6615,66.1757,76.7575,78.3997,76.7575,78.3997 C77.1415,78.7837,77.3335,79.2317,77.3335,79.7437 C77.3335,79.7437,77.3335,81.7917,77.3335,81.7917 C77.3335,81.7917,73.5575,81.7917,73.5575,81.7917 C73.5575,81.7917,73.5575,80.8957,73.5575,80.8957 C73.5575,80.8957,59.1575,66.1757,59.1575,66.1757 C59.1575,66.1757,54.4855,66.1757,54.4855,66.1757 C54.4855,66.1757,54.4855,81.7917,54.4855,81.7917 C54.4855,81.7917,50.7095,81.7917,50.7095,81.7917 C50.7095,81.7917,50.7095,46.7837,50.7095,46.7837 C50.7095,46.7837,71.5095,46.7837,71.5095,46.7837 C72.0215,46.7837,72.4695,46.9757,72.8535,47.3597 C72.8535,47.3597,76.7575,51.1997,76.7575,51.1997 C77.1415,51.5837,77.3335,52.0317,77.3335,52.5437 C77.3335,52.5437,77.3335,60.4157,77.3335,60.4157 C77.3335,60.9277,77.1415,61.3757,76.7575,61.7597 C76.7575,61.7597,72.9815,65.5997,72.9815,65.5997 C72.5975,65.9837,72.1495,66.1757,71.6375,66.1757 C71.6375,66.1757,64.6615,66.1757,64.6615,66.1757 z M54.4855,62.3357 C54.4855,62.3357,70.8055,62.3357,70.8055,62.3357 C70.8055,62.3357,73.4935,59.6477,73.4935,59.6477 C73.4935,59.6477,73.4935,53.3757,73.4935,53.3757 C73.4935,53.3757,70.7415,50.6237,70.7415,50.6237 C70.7415,50.6237,54.4855,50.6237,54.4855,50.6237 C54.4855,50.6237,54.4855,62.3357,54.4855,62.3357 z"/>
      </g>
    </g>
  </g>
</svg>
