<?xml version="1.0" encoding="utf-8"?>
<svg x="0pt" y="0pt" width="128pt" height="128pt" viewBox="0 0 128 128" xmlns="http://www.w3.org/2000/svg" xmlns:xlink="http://www.w3.org/1999/xlink">
  <g id="Layer 1">
    <path id="Path 1" style="fill:#000000;fill-opacity:1;fill-rule:nonzero;opacity:1;stroke:none;" d="M117.249,93.9784 C117.249,93.9784,117.249,33.9694,117.249,33.9694 C117.249,33.9694,64.0558,3.88366,64.0558,3.88366 C64.0558,3.88366,10.9254,33.9694,10.9254,33.9694 C10.9254,33.9694,10.9254,93.9784,10.9254,93.9784 C10.9254,93.9784,64.0558,124.058,64.0558,124.058 C64.0558,124.058,117.249,93.9784,117.249,93.9784 z"/>
    <path id="Path 368" style="fill:#ffffff;fill-opacity:1;fill-rule:nonzero;opacity:1;stroke:none;" d="M71.1181,64 C71.1181,68.6774,67.3263,72.4693,62.6488,72.4693 C57.9714,72.4693,54.1796,68.6774,54.1796,64 C54.1796,59.3225,57.9714,55.5307,62.6488,55.5307 C67.3263,55.5307,71.1181,59.3225,71.1181,64"/>
    <g id="Group">
      <path id="Path 369" style="fill:none;opacity:1;stroke:#60dafb;stroke-linecap:butt;stroke-linejoin:miter;stroke-miterlimit:4;stroke-opacity:1;stroke-width:0.977351;" d="M109.288,64 C109.288,73.5975,88.9537,81.3778,63.8706,81.3778 C38.7875,81.3778,18.4536,73.5975,18.4536,64 C18.4536,54.4025,38.7875,46.6222,63.8706,46.6222 C88.9537,46.6222,109.288,54.4025,109.288,64"/>
      <path id="Path 370" style="fill:none;opacity:1;stroke:#60dafb;stroke-linecap:butt;stroke-linejoin:miter;stroke-miterlimit:4;stroke-opacity:1;stroke-width:0.977351;" d="M86.5791,103.416 C78.285,108.215,61.3944,94.4576,48.8528,72.6889 C36.3112,50.9202,32.868,29.383,41.1621,24.5842 C49.4562,19.7855,66.3468,33.5424,78.8884,55.3111 C91.43,77.0798,94.8732,98.617,86.5791,103.416"/>
      <path id="Path 371" style="fill:none;opacity:1;stroke:#7bdb00;stroke-linecap:butt;stroke-linejoin:miter;stroke-miterlimit:4;stroke-opacity:1;stroke-width:0.977351;" d="M41.1621,103.416 C32.868,98.617,36.3112,77.0798,48.8528,55.3111 C61.3944,33.5424,78.285,19.7855,86.5791,24.5842 C94.8732,29.383,91.4299,50.9202,78.8884,72.6889 C66.3468,94.4576,49.4562,108.215,41.1621,103.416"/>
      <path id="Group" style="fill:none;opacity:1;stroke:#ffffff;stroke-linecap:butt;stroke-linejoin:miter;stroke-miterlimit:4;stroke-opacity:1;stroke-width:0.977351;" d="M109.288,64 C109.288,73.5975,88.9537,81.3778,63.8706,81.3778 C38.7875,81.3778,18.4536,73.5975,18.4536,64 C18.4536,54.4025,38.7875,46.6222,63.8706,46.6222 C88.9537,46.6222,109.288,54.4025,109.288,64 M86.5791,103.416 C78.285,108.215,61.3944,94.4576,48.8528,72.6889 C36.3112,50.9202,32.868,29.383,41.1621,24.5842 C49.4562,19.7855,66.3468,33.5424,78.8884,55.3111 C91.43,77.0798,94.8732,98.617,86.5791,103.416 M41.1621,103.416 C32.868,98.617,36.3112,77.0798,48.8528,55.3111 C61.3944,33.5424,78.285,19.7855,86.5791,24.5842 C94.8732,29.383,91.4299,50.9202,78.8884,72.6889 C66.3468,94.4576,49.4562,108.215,41.1621,103.416"/>
    </g>
  </g>
</svg>
