<?xml version="1.0" encoding="utf-8"?>
<svg x="0pt" y="0pt" width="323pt" height="285pt" viewBox="0 0 323 285" xmlns="http://www.w3.org/2000/svg" xmlns:xlink="http://www.w3.org/1999/xlink">
  <g id="Layer 1">
    <g id="Group">
      <path id="Path 0" style="fill:#8080f2;fill-opacity:1;fill-rule:nonzero;opacity:1;stroke:none;" d="M98.7642,104.305 C119.023,92.6087,139.282,80.9123,159.541,69.2158 C161.062,68.3374,162.937,68.3374,164.458,69.2158 C184.717,80.9123,204.977,92.6087,225.236,104.305 C226.756,105.184,227.694,106.806,227.694,108.563 C227.694,131.956,227.694,155.349,227.694,178.742 C227.694,180.497,226.756,182.121,225.236,183.001 C204.977,194.697,184.717,206.394,164.458,218.09 C162.937,218.968,161.062,218.968,159.541,218.09 C139.282,206.394,119.023,194.697,98.7642,183.001 C97.2432,182.122,96.3058,180.498,96.3058,178.742 C96.3058,155.349,96.3058,131.956,96.3058,108.563 C96.3071,106.806,97.2445,105.184,98.7642,104.305"/>
      <path id="Path 1" style="fill:#4b31c3;fill-opacity:1;fill-rule:nonzero;opacity:1;stroke:none;" d="M320.021,136.27 C295.815,94.1589,271.609,52.0481,247.404,9.9372 C244.766,5.36939,239.893,2,234.619,2 C186.207,2,137.795,2,89.3826,2 C84.107,2,79.233,5.36939,76.5952,9.9372 C52.3896,51.9552,28.184,93.9732,3.97832,135.991 C1.34054,140.56,1.34054,146.326,3.97832,150.896 C28.184,192.661,52.3896,234.427,76.5952,276.193 C79.233,280.761,84.107,283.096,89.3826,283.096 C137.794,283.096,186.206,283.096,234.618,283.096 C239.892,283.096,244.766,280.831,247.402,276.262 C271.608,234.428,295.814,192.594,320.019,150.76 C322.66,146.193,322.66,140.838,320.021,136.27 M259.89,197.019 C259.89,198.876,258.772,200.594,257.162,201.524 C226.329,219.313,195.496,237.102,164.664,254.891 C163.055,255.82,161.04,255.82,159.431,254.891 C128.574,237.102,97.7176,219.313,66.8611,201.524 C65.2523,200.594,64.1267,198.878,64.1267,197.019 C64.1267,161.441,64.1267,125.863,64.1267,90.2843 C64.1267,88.4258,65.236,86.7091,66.846,85.7792 C97.6775,67.9903,128.509,50.2013,159.34,32.4124 C160.949,31.4825,162.962,31.4825,164.571,32.4124 C195.429,50.2013,226.288,67.9903,257.147,85.7792 C258.757,86.7091,259.89,88.4258,259.89,90.2843 C259.89,90.2843,259.89,197.019,259.89,197.019 z"/>
    </g>
    <g id="Text">
      <g id="Text">
        <path style="fill:#382e92;fill-opacity:1;fill-rule:nonzero;opacity:1;stroke:none;" d="M163.28,147.429 C163.28,147.429,187.472,171.877,187.472,171.877 C188.24,172.645,188.624,173.541,188.624,174.565 C188.624,174.565,188.624,178.661,188.624,178.661 C188.624,178.661,181.072,178.661,181.072,178.661 C181.072,178.661,181.072,176.869,181.072,176.869 C181.072,176.869,152.272,147.429,152.272,147.429 C152.272,147.429,142.928,147.429,142.928,147.429 C142.928,147.429,142.928,178.661,142.928,178.661 C142.928,178.661,135.376,178.661,135.376,178.661 C135.376,178.661,135.376,108.645,135.376,108.645 C135.376,108.645,176.976,108.645,176.976,108.645 C178,108.645,178.896,109.029,179.664,109.797 C179.664,109.797,187.472,117.477,187.472,117.477 C188.24,118.245,188.624,119.141,188.624,120.165 C188.624,120.165,188.624,135.909,188.624,135.909 C188.624,136.933,188.24,137.829,187.472,138.597 C187.472,138.597,179.92,146.277,179.92,146.277 C179.152,147.045,178.256,147.429,177.232,147.429 C177.232,147.429,163.28,147.429,163.28,147.429 z M142.928,139.749 C142.928,139.749,175.568,139.749,175.568,139.749 C175.568,139.749,180.944,134.373,180.944,134.373 C180.944,134.373,180.944,121.829,180.944,121.829 C180.944,121.829,175.44,116.325,175.44,116.325 C175.44,116.325,142.928,116.325,142.928,116.325 C142.928,116.325,142.928,139.749,142.928,139.749 z"/>
      </g>
    </g>
  </g>
</svg>
