<?xml version="1.0" encoding="utf-8"?>
<svg x="0pt" y="0pt" width="128pt" height="128pt" viewBox="0 0 128 128" xmlns="http://www.w3.org/2000/svg" xmlns:xlink="http://www.w3.org/1999/xlink">
  <g id="Layer 1">
    <path id="Path 1" style="fill:#000000;fill-opacity:1;fill-rule:nonzero;opacity:1;stroke:none;" d="M117,93.9642 C117,93.9642,117,34.0422,117,34.0422 C117,34.0422,63.9687,4,63.9687,4 C63.9687,4,11,34.0422,11,34.0422 C11,34.0422,11,93.9642,11,93.9642 C11,93.9642,63.9687,124,63.9687,124 C63.9687,124,117,93.9642,117,93.9642 z"/>
    <path id="Path 368" style="fill:#ffffff;fill-opacity:1;fill-rule:nonzero;opacity:1;stroke:none;" d="M72.05,64.05 C72.05,68.4683,68.4683,72.05,64.05,72.05 C59.6317,72.05,56.05,68.4683,56.05,64.05 C56.05,59.6317,59.6317,56.05,64.05,56.05 C68.4683,56.05,72.05,59.6317,72.05,64.05"/>
    <g id="Group">
      <path id="Path 369" style="fill:none;opacity:1;stroke:#ffffff;stroke-linecap:butt;stroke-linejoin:miter;stroke-miterlimit:4;stroke-opacity:1;stroke-width:0.977351;" d="M109.484,64 C109.484,73.5975,89.1502,81.3778,64.067,81.3778 C38.9839,81.3778,18.65,73.5975,18.65,64 C18.65,54.4025,38.9839,46.6222,64.067,46.6222 C89.1502,46.6222,109.484,54.4025,109.484,64"/>
      <path id="Path 370" style="fill:none;opacity:1;stroke:#ffffff;stroke-linecap:butt;stroke-linejoin:miter;stroke-miterlimit:4;stroke-opacity:1;stroke-width:0.977351;" d="M86.7756,103.416 C78.4815,108.215,61.5908,94.4576,49.0492,72.6889 C36.5077,50.9202,33.0644,29.383,41.3585,24.5843 C49.6526,19.7855,66.5433,33.5424,79.0848,55.3111 C91.6264,77.0798,95.0696,98.617,86.7756,103.416"/>
      <path id="Path 371" style="fill:none;opacity:1;stroke:#ffffff;stroke-linecap:butt;stroke-linejoin:miter;stroke-miterlimit:4;stroke-opacity:1;stroke-width:0.977351;" d="M41.3585,103.416 C33.0644,98.617,36.5077,77.0798,49.0492,55.3111 C61.5908,33.5424,78.4815,19.7855,86.7755,24.5843 C95.0696,29.383,91.6264,50.9202,79.0848,72.6889 C66.5433,94.4576,49.6526,108.215,41.3585,103.416"/>
      <path id="Group" style="fill:none;opacity:1;stroke:#ffffff;stroke-linecap:butt;stroke-linejoin:miter;stroke-miterlimit:4;stroke-opacity:1;stroke-width:0.977351;" d="M109.484,64 C109.484,73.5975,89.1502,81.3778,64.067,81.3778 C38.9839,81.3778,18.65,73.5975,18.65,64 C18.65,54.4025,38.9839,46.6222,64.067,46.6222 C89.1502,46.6222,109.484,54.4025,109.484,64 M86.7756,103.416 C78.4815,108.215,61.5908,94.4576,49.0492,72.6889 C36.5077,50.9202,33.0644,29.383,41.3585,24.5843 C49.6526,19.7855,66.5433,33.5424,79.0848,55.3111 C91.6264,77.0798,95.0696,98.617,86.7756,103.416 M41.3585,103.416 C33.0644,98.617,36.5077,77.0798,49.0492,55.3111 C61.5908,33.5424,78.4815,19.7855,86.7755,24.5843 C95.0696,29.383,91.6264,50.9202,79.0848,72.6889 C66.5433,94.4576,49.6526,108.215,41.3585,103.416"/>
    </g>
  </g>
</svg>
