<svg xmlns="http://www.w3.org/2000/svg" viewBox="0 0 128 128">
  <path
    d="M115.96152 94V34L64 4 12.03848 34v60L64 124Z"
    style="fill: #000; fill-opacity: 1; fill-rule: nonzero; opacity: 1; stroke: none"
  />
  <path
    d="M72 64A8 8 0 1 1 56 64A8 8 0 0 1 72 64"
    style="fill: #fff; fill-opacity: 1; fill-rule: nonzero; opacity: 1; stroke: none"
  />
  <path
    d="M109.41700 64.00000 C109.41700 73.59760 89.08312 81.37800 64.00000 81.37800 C38.91688 81.37800 18.58300 73.59760 18.58300 64.00000 C18.58300 54.40240 38.91688 46.62200 64.00000 46.62200 C89.08312 46.62200 109.41700 54.40240 109.41700 64.00000 Z"
    style="fill: none; opacity: 1; stroke: #fff; stroke-linecap: butt; stroke-linejoin: miter; stroke-miterlimit: 4; stroke-opacity: 1; stroke-width: 0.977351px"
  />
  <path
    d="M86.70850 103.33228 C78.39673 108.13108 61.49177 94.41162 48.95021 72.68900 C36.40865 50.96638 32.97973 29.46652 41.29150 24.66772 C49.60327 19.86892 66.50823 33.58838 79.04979 55.31100 C91.59135 77.03362 95.02027 98.53348 86.70850 103.33228 Z"
    style="fill: none; opacity: 1; stroke: #fff; stroke-linecap: butt; stroke-linejoin: miter; stroke-miterlimit: 4; stroke-opacity: 1; stroke-width: 0.977351px"
  />
  <path
    d="M41.29150 103.33228 C32.97973 98.53348 36.40865 77.03362 48.95021 55.31100 C61.49177 33.58838 78.39673 19.86892 86.70850 24.66772 C95.02027 29.46652 91.59135 50.96638 79.04979 72.68900 C66.50823 94.41162 49.60327 108.13108 41.29150 103.33228 Z"
    style="fill: none; opacity: 1; stroke: #fff; stroke-linecap: butt; stroke-linejoin: miter; stroke-miterlimit: 4; stroke-opacity: 1; stroke-width: 0.977351px"
  />
</svg>
