<svg xmlns="http://www.w3.org/2000/svg" viewBox="0 0 128 128">
  <path
    d="M115.96152 94V34L64 4 12.03848 34v60L64 124Z"
    style="fill: #000; fill-opacity: 1; fill-rule: nonzero; opacity: 1; stroke: none"
  />
  <path
    d="M72.05 64.05A8 8 0 1 1 56.05 64.05A8 8 0 0 1 72.05 64.05"
    style="fill: #fff; fill-opacity: 1; fill-rule: nonzero; opacity: 1; stroke: none"
  />
  <path
    d="M109.484 64c0 9.597-20.334 17.378-45.417 17.378S18.65 73.598 18.65 64c0-9.597 20.334-17.378 45.417-17.378s45.417 7.78 45.417 17.378"
    style="fill: none; opacity: 1; stroke: #fff; stroke-linecap: butt; stroke-linejoin: miter; stroke-miterlimit: 4; stroke-opacity: 1; stroke-width: 0.977351px"
  />
  <path
    d="M86.776 103.416c-8.295 4.799-25.185-8.958-37.727-30.727s-15.985-43.306-7.69-48.105 25.184 8.958 37.726 30.727 15.985 43.306 7.69 48.105"
    style="fill: none; opacity: 1; stroke: #fff; stroke-linecap: butt; stroke-linejoin: miter; stroke-miterlimit: 4; stroke-opacity: 1; stroke-width: 0.977351px"
  />
  <path
    d="M41.359 103.416c-8.295-4.799-4.851-26.336 7.69-48.105s29.432-35.526 37.726-30.727 4.851 26.336-7.69 48.105-29.432 35.526-37.726 30.727"
    style="fill: none; opacity: 1; stroke: #fff; stroke-linecap: butt; stroke-linejoin: miter; stroke-miterlimit: 4; stroke-opacity: 1; stroke-width: 0.977351px"
  />
</svg>
